<svg width="112" height="112" viewBox="0 0 112 112" fill="none" xmlns="http://www.w3.org/2000/svg">
<g clip-path="url(#clip0_202_346)">
<path d="M106.737 41.9815C107.706 39.0574 107.474 35.8685 106.092 33.1154C104.711 30.3624 102.292 28.2705 99.3692 27.2994L38.5277 6.87437C37.0796 6.38289 35.548 6.18487 34.0225 6.29184C32.4969 6.39882 31.008 6.80867 29.6426 7.49744" fill="white"/>
<path d="M29.6426 7.49742C26.8875 8.87622 24.7926 11.2926 23.8185 14.2154L5.26263 69.9913C4.30166 72.9156 4.53723 76.1013 5.91786 78.8524C7.29848 81.6035 9.71192 83.6963 12.6308 84.6735L73.4994 105.098C74.9486 105.584 76.4794 105.779 78.004 105.672C79.5287 105.565 81.0173 105.158 82.3845 104.475C83.7489 103.797 84.9643 102.854 85.9597 101.7C86.9551 100.547 87.7104 99.2063 88.1815 97.7574L106.764 41.9815" fill="white"/>
<path d="M59.4132 61.0791C56.0636 64.8326 51.8787 67.7462 47.1961 69.585L44.4873 70.6415V44.7987L47.1961 45.8552C51.8848 47.6843 56.0787 50.5884 59.4403 54.334C61.5677 50.8534 62.9092 46.9501 63.371 42.897C63.8327 38.8439 63.4036 34.7388 62.1136 30.8689C60.8236 26.9989 58.7039 23.4574 55.9026 20.492C53.1014 17.5266 49.6862 15.2088 45.8959 13.7008L37.0107 10.6668C36.0699 10.3581 35.0773 10.2379 34.0899 10.3132C33.1026 10.3885 32.1397 10.6578 31.2566 11.1057C30.3734 11.5535 29.5872 12.1712 28.9431 12.9233C28.2989 13.6754 27.8094 14.5471 27.5025 15.4886L8.89253 71.3187C8.28492 73.2407 8.45874 75.3247 9.37641 77.1195C10.2941 78.9142 11.8817 80.2753 13.7956 80.9081L56.0271 94.9943C60.2391 90.4968 62.8488 84.7348 63.4513 78.6024C64.0537 72.4701 62.6152 66.3103 59.359 61.0791H59.4132ZM34.9791 43.2547V72.2397H30.7803V43.3359L34.9791 43.2547Z" fill="#2293C8"/>
<path d="M56.9752 57.693C54.5966 54.915 51.7097 52.6165 48.4694 50.9208V64.4652C51.7235 62.7558 54.6128 60.4278 56.9752 57.6117" fill="#E43D30"/>
<path d="M98.0419 31.0105L59.2778 18.0621C64.147 23.3867 67.0662 30.2056 67.5582 37.4041C68.0502 44.6027 66.0861 51.7553 61.9867 57.693C65.97 63.4533 67.9477 70.3641 67.6149 77.3596C67.282 84.3552 64.657 91.0469 60.1446 96.4029L74.7184 101.252C75.6591 101.564 76.6524 101.687 77.641 101.614C78.6295 101.54 79.5936 101.271 80.4777 100.823C81.3618 100.375 82.1482 99.7557 82.7917 99.0017C83.4352 98.2477 83.9228 97.3736 84.2266 96.4301L102.918 40.6271C103.534 38.7087 103.367 36.6245 102.454 34.8285C101.541 33.0324 99.955 31.6699 98.0419 31.0376V31.0105ZM87.7752 72.1855H82.52L71.6845 57.693L82.52 43.2276H87.9378L77.1022 57.7472L87.7752 72.1855Z" fill="#215C9C"/>
</g>
<defs>
<clipPath id="clip0_202_346">
<rect width="102.667" height="99.4431" fill="white" transform="translate(4.66669 6.27841)"/>
</clipPath>
</defs>
</svg>
