<svg width="112" height="112" viewBox="0 0 112 112" fill="none" xmlns="http://www.w3.org/2000/svg">
<g clip-path="url(#clip0_202_423)">
<path fill-rule="evenodd" clip-rule="evenodd" d="M42.94 103.845C40.6555 105.393 37.9852 106.275 35.228 106.392C32.0167 106.334 28.946 105.065 26.6307 102.839C24.3154 100.613 22.9264 97.5946 22.7418 94.3881L35.687 86.699L55.7704 95.6964L42.94 103.845Z" fill="#72A3B6"/>
<path fill-rule="evenodd" clip-rule="evenodd" d="M50.5832 70.747L40.989 66.5237C36.6969 64.6416 32.6572 63.012 32.6572 58.3067C32.5938 57.39 32.7291 56.4703 33.054 55.6107C33.3788 54.7511 33.8855 53.9717 34.5394 53.326L54.8065 62.2316L49.8258 65.1695C48.4257 65.9958 47.5305 66.7532 47.5305 67.832C47.5305 68.9108 48.8388 69.9666 50.652 70.747H50.5832Z" fill="#96CE8E"/>
<path fill-rule="evenodd" clip-rule="evenodd" d="M59.9937 26.4716L50.1471 32.4622C49.2749 32.9901 48.0813 33.8164 48.0813 35.1476C48.0813 36.4789 50.3766 37.7642 52.3734 38.7282L40.0939 33.3114C36.4903 31.7047 32.8409 29.9145 32.8409 25.5305C32.8162 23.895 33.2972 22.2918 34.218 20.94L60.8429 4.68958C62.7064 5.71416 64.2657 7.21364 65.3622 9.03577C66.4587 10.8579 67.0534 12.9378 67.086 15.0642C67.1021 17.4503 66.4453 19.7927 65.1909 21.8226C63.9364 23.8525 62.1351 25.4876 59.9937 26.5404V26.4716Z" fill="#72A3B6"/>
<path fill-rule="evenodd" clip-rule="evenodd" d="M80.9035 45.6599L78.4705 47.0599L58.1116 38.0856L81.7527 23.832C83.6217 24.8623 85.188 26.3646 86.2955 28.1889C87.4029 30.0132 88.0129 32.0959 88.0647 34.2295C88.1025 36.6288 87.4468 38.988 86.1765 41.0238C84.9062 43.0595 83.0752 44.6852 80.9035 45.7057V45.6599Z" fill="#96CE8E"/>
<path fill-rule="evenodd" clip-rule="evenodd" d="M63.712 62.9661L75.7621 68.2452C80.3526 70.265 81.6609 72.652 81.6609 75.6359C81.6212 76.5191 81.3963 77.3842 81.0009 78.175C80.6055 78.9657 80.0484 79.6646 79.3656 80.2264L59.1445 71.229L62.5415 69.3469C65.4335 67.7173 66.4205 66.7762 66.4205 65.7204C66.4205 64.6645 65.7089 63.9071 63.735 62.989L63.712 62.9661Z" fill="#72A3B6"/>
<path fill-rule="evenodd" clip-rule="evenodd" d="M85.2186 107.333C79.8634 103.472 74.0695 100.26 67.9582 97.7621L37.3396 84.1512C29.6275 80.7084 24.5091 76.1638 24.5091 68.4517C24.5091 60.7397 28.1356 57.3427 32.8409 54.3589L34.5393 53.326C33.8855 53.9717 33.3788 54.7511 33.054 55.6107C32.7291 56.4703 32.5938 57.39 32.6572 58.3067C32.6572 63.012 36.6969 64.6416 40.989 66.5237L76.6114 82.2232C82.8545 84.9087 88.5008 89.4992 88.5008 97.2572C88.5777 100.89 87.4207 104.442 85.2186 107.333V107.333Z" fill="#4C9847"/>
<path fill-rule="evenodd" clip-rule="evenodd" d="M81.5462 78.8033L79.2509 80.2034C79.9336 79.6417 80.4907 78.9428 80.8861 78.152C81.2815 77.3612 81.5064 76.4961 81.5462 75.6129C81.5462 72.6291 80.146 70.242 75.6473 68.2222L37.5461 51.4898C29.8341 48.024 25.037 43.64 25.037 35.9739C25.0118 32.869 25.8452 29.8175 27.4451 27.1563C29.045 24.4952 31.3492 22.328 34.1032 20.8941C33.1824 22.2459 32.7014 23.8491 32.7261 25.4846C32.7261 29.8685 36.3755 31.6588 39.9791 33.2655L77.0015 49.6077C83.7725 52.6145 89.2353 57.1591 89.2353 65.3302C89.3136 68.0729 88.6245 70.7831 87.2458 73.1553C85.867 75.5276 83.8533 77.4678 81.4313 78.7574L81.5462 78.8033Z" fill="#296085"/>
</g>
<defs>
<clipPath id="clip0_202_423">
<rect width="66.6542" height="102.667" fill="white" transform="translate(22.6729 4.66665)"/>
</clipPath>
</defs>
</svg>
